<svg id="Camada_1" data-name="Camada 1" xmlns="http://www.w3.org/2000/svg" viewBox="0 0 200 200">
  <defs>
    <style>.cls-1{fill:#1a1d23;}.cls-2{fill:#00ff91;}</style>
  </defs>
  <circle class="cls-1" cx="100" cy="100" r="100"/>
  <path class="cls-2" d="M94.38,41.86a5.92,5.92,0,0,0-3.24-1H86.78a1.38,1.38,0,0,0-1.12.43,1.27,1.27,0,0,0-.42,1c-.14,28.12-.28,56.1-.42,84.22a10.43,10.43,0,0,0,1,4.78,8,8,0,0,0,3.09,3.37,16.18,16.18,0,0,0,4.78,2,28.21,28.21,0,0,0,6.33.7c4.78,0,8.58-.7,11.25-2.53s3.93-4.5,3.93-8.15q0-42.18-.28-84.22a1.27,1.27,0,0,0-.42-1,1.59,1.59,0,0,0-1.12-.42H109a4.72,4.72,0,0,0-3.24,1,3.2,3.2,0,0,0-1.26,2.53l.14,81.26a4,4,0,0,1-1.13,3,5,5,0,0,1-3.51,1.12c-1.55,0-2.81-.28-3.51-1.12a4,4,0,0,1-1.13-3l.14-81.26A2.82,2.82,0,0,0,94.38,41.86ZM57,42a5,5,0,0,0-3.24-1H49.39a1.39,1.39,0,0,0-1.13.42,1.59,1.59,0,0,0-.42,1.12V147.45a1.09,1.09,0,0,0,.42,1c.28.14.56.14,1.13-.14,1.4-.7,2.67-1.41,4.07-2a7.69,7.69,0,0,0,3.24-2.67A6.61,6.61,0,0,0,57.82,140c0-14.76.14-29.52.14-44.28L66.82,94l-.28,42.88a3.18,3.18,0,0,0,1.12,2.67c.71.57,1.83.57,3.38.28,1.4-.42,2.95-.7,4.36-1.12a1.58,1.58,0,0,0,1.12-.7,1.61,1.61,0,0,0,.42-1.13c.14-31.35.42-63,.56-94.48a1.27,1.27,0,0,0-.42-1A1.59,1.59,0,0,0,76,41H71.6a4.68,4.68,0,0,0-3.23,1,3.25,3.25,0,0,0-1.27,2.67C67,58.59,67,72.37,66.82,86.29c-2.95.42-5.91.84-8.86,1.4l.14-42.88A2.93,2.93,0,0,0,57,42Zm14.9,107.7v17H87.77v-4.22H78.49V149.56l-6.61.14Zm37.82,0v17h6.19v-1.13a8.66,8.66,0,0,0,4.78,1.41c3.37,0,7.59-1.69,7.59-6.75,0-4.36-3.23-6.75-7.17-6.75a8.29,8.29,0,0,0-5.2,1.55V149.7Zm9.14,7.73a2.72,2.72,0,0,1,3.23,2.81c0,2.25-1.82,2.95-3.23,2.95a2.84,2.84,0,0,1-3.09-2.95A2.77,2.77,0,0,1,118.84,157.43Zm5.9-18.42a107.65,107.65,0,0,1,13.22,3.8c4.64,1.68,8.16,2.11,10.55.84s3.65-3.8,3.65-8V54.09c0-4.08-1.26-7.31-4.08-9.7s-6.32-3.52-10.82-3.52H123.9a1.38,1.38,0,0,0-1.12.43,1.28,1.28,0,0,0-.43,1c.15,31.63.43,63.13.57,94.76a1.61,1.61,0,0,0,.42,1.13A3.73,3.73,0,0,0,124.74,139Zm12.8-90a4.18,4.18,0,0,1,3.37,1.41,4.87,4.87,0,0,1,1,3.23c.14,26,.28,52,.28,78.17a3.4,3.4,0,0,1-1,2.81c-.7.56-1.82.56-3.37.14s-2.95-1-4.5-1.4q-.21-42.18-.56-84.36ZM89.31,160.8a3.93,3.93,0,0,0-.7,2.25,3.49,3.49,0,0,0,1.55,3,7.79,7.79,0,0,0,4.36,1.12,19,19,0,0,0,6.75-1.55,4.09,4.09,0,0,0,.28,1.27h6.32a2,2,0,0,1-.7-1.83v-6.75a3.69,3.69,0,0,0-2.25-3.79,18.2,18.2,0,0,0-6.89-1c-3.23,0-5.62.42-6.89,1.13A4.19,4.19,0,0,0,89,157.85h5.91c.14-.28.28-.7,1.4-1a11.6,11.6,0,0,1,2-.14c1.83,0,2.39.42,2.67.7a1.47,1.47,0,0,1,.29,1,49.42,49.42,0,0,0-9.57.71A5.87,5.87,0,0,0,89.31,160.8Zm7.88.28c1-.14,3.23-.14,4.22-.28a2.84,2.84,0,0,1-1.69,2.11,6.55,6.55,0,0,1-3,.71c-1.83,0-2.11-.85-2.11-1.27C94.66,161.37,96.34,161.22,97.19,161.08Z"/>
</svg>