<?xml version="1.0" encoding="utf-8"?>
<!-- Generator: Adobe Illustrator 25.2.1, SVG Export Plug-In . SVG Version: 6.00 Build 0)  -->
<svg version="1.1" id="Camada_1" xmlns="http://www.w3.org/2000/svg" xmlns:xlink="http://www.w3.org/1999/xlink" x="0px" y="0px"
	 viewBox="0 0 200 200" enable-background="new 0 0 200 200" xml:space="preserve">
<circle fill="#00FF91" cx="100" cy="100" r="100"/>
<path fill="#1A1D23" d="M94.4,41.9c-0.8-0.6-2-1-3.2-1h-4.4c-0.6,0-0.8,0.1-1.1,0.4c-0.3,0.3-0.4,0.6-0.4,1
	c-0.1,28.1-0.3,56.1-0.4,84.2c0,1.8,0.3,3.4,1,4.8s1.7,2.5,3.1,3.4c1.4,0.8,3,1.5,4.8,2c1.8,0.4,3.9,0.7,6.3,0.7
	c4.8,0,8.6-0.7,11.2-2.5c2.7-1.8,3.9-4.5,3.9-8.2c0-28.1-0.1-56.2-0.3-84.2c0-0.4-0.1-0.7-0.4-1c-0.3-0.3-0.7-0.4-1.1-0.4H109
	c-1.4,0-2.4,0.3-3.2,1c-0.8,0.7-1.3,1.5-1.3,2.5l0.1,81.3c0,1.3-0.4,2.2-1.1,3c-0.7,0.7-2,1.1-3.5,1.1s-2.8-0.3-3.5-1.1
	c-0.7-0.7-1.1-1.7-1.1-3l0.1-81.3C95.6,43.4,95.2,42.6,94.4,41.9z M57,42c-0.8-0.7-2-1-3.2-1h-4.4c-0.6,0-0.8,0.1-1.1,0.4
	c-0.3,0.3-0.4,0.7-0.4,1.1v104.9c0,0.4,0.1,0.8,0.4,1c0.3,0.1,0.6,0.1,1.1-0.1c1.4-0.7,2.7-1.4,4.1-2c1.4-0.7,2.5-1.5,3.2-2.7
	s1.1-2.2,1.1-3.7c0-14.8,0.1-29.5,0.1-44.3c3-0.6,5.9-1.1,8.9-1.7l-0.3,42.9c0,1.3,0.4,2.1,1.1,2.7c0.7,0.6,1.8,0.6,3.4,0.3
	c1.4-0.4,3-0.7,4.4-1.1c0.6-0.1,0.8-0.3,1.1-0.7c0.3-0.3,0.4-0.7,0.4-1.1c0.1-31.4,0.4-63,0.6-94.5c0-0.4-0.1-0.7-0.4-1
	C76.8,41.2,76.4,41,76,41h-4.4c-1.4,0-2.4,0.3-3.2,1s-1.3,1.5-1.3,2.7C67,58.6,67,72.4,66.8,86.3c-3,0.4-5.9,0.8-8.9,1.4l0.1-42.9
	C58.2,43.5,57.8,42.7,57,42z M71.9,149.7v17h15.9v-4.2h-9.3v-12.9L71.9,149.7L71.9,149.7z M109.7,149.7v17h6.2v-1.1
	c1,0.6,2.4,1.4,4.8,1.4c3.4,0,7.6-1.7,7.6-6.7c0-4.4-3.2-6.7-7.2-6.7c-3,0-4.4,1-5.2,1.5v-5.3L109.7,149.7L109.7,149.7z
	 M118.8,157.4c2.2-0.1,3.2,1.3,3.2,2.8c0,2.2-1.8,3-3.2,3c-2,0-3.1-1.3-3.1-3C115.7,159.3,116.3,157.4,118.8,157.4z M124.7,139
	c4.5,1,8.9,2.2,13.2,3.8c4.6,1.7,8.2,2.1,10.5,0.8c2.5-1.1,3.7-3.8,3.7-8V54.1c0-4.1-1.3-7.3-4.1-9.7c-2.7-2.4-6.3-3.5-10.8-3.5
	h-13.4c-0.6,0-0.8,0.1-1.1,0.4c-0.3,0.3-0.4,0.6-0.4,1c0.1,31.6,0.4,63.1,0.6,94.8c0,0.4,0.1,0.8,0.4,1.1
	C123.9,138.6,124.2,138.9,124.7,139z M137.5,49c1.5,0,2.7,0.6,3.4,1.4c0.7,0.8,1,2,1,3.2c0.1,26,0.3,52,0.3,78.2
	c0,1.3-0.3,2.2-1,2.8c-0.7,0.6-1.8,0.6-3.4,0.1c-1.4-0.4-3-1-4.5-1.4c-0.1-28.1-0.3-56.2-0.6-84.4C134.6,49,136,49,137.5,49z
	 M89.3,160.8c-0.4,0.6-0.7,1.4-0.7,2.2c0,1.3,0.6,2.2,1.5,3c1.3,0.8,2.8,1.1,4.4,1.1c2.8,0,5.2-1,6.7-1.5c0,0.6,0.1,0.7,0.3,1.3h6.3
	c-0.6-0.6-0.7-0.8-0.7-1.8v-6.7c0-0.8,0-2.8-2.2-3.8c-1.5-0.7-4.1-1-6.9-1c-3.2,0-5.6,0.4-6.9,1.1c-1.7,1-2,2.4-2.1,3.2h5.9
	c0.1-0.3,0.3-0.7,1.4-1c0.7-0.1,1.7-0.1,2-0.1c1.8,0,2.4,0.4,2.7,0.7c0.3,0.4,0.3,0.7,0.3,1c-3,0-7.3,0.1-9.6,0.7
	C90.4,159.7,89.7,160.2,89.3,160.8z M97.2,161.1c1-0.1,3.2-0.1,4.2-0.3c-0.1,0.7-0.4,1.4-1.7,2.1c-0.8,0.4-1.8,0.7-3,0.7
	c-1.8,0-2.1-0.8-2.1-1.3C94.7,161.4,96.3,161.2,97.2,161.1z"/>
</svg>
